<svg xmlns="http://www.w3.org/2000/svg" version="1.1"  >

<style>g { background-color:black; fill:black; stroke:yellow; stroke-width:1; }</style>

<g>

<rect width="100%" height="100%" fill="black" />

<path d="M 150.56 19.46 C 149.71 26.28 147.09 32.67 146.23 39.51 C 150.45 40.71 154.48 41.64 158.43 43.62 C 165.85 47.42 173.15 51.26 181.01 54.06 C 190.52 58.08 199.84 62.55 209.19 66.83 C 212.25 68.52 215.48 70.51 217.86 73.09 C 220.82 78.07 221.33 84.47 219.99 90.02 C 219.35 92.69 217.92 94.99 215.05 95.54 C 211.23 95.87 207.29 94.67 203.46 94.42 C 203.40 95.51 203.34 96.60 203.27 97.69 C 206.09 98.49 208.96 99.07 211.81 99.78 C 213.39 100.24 214.89 101.14 214.71 103.01 C 215.08 106.12 211.46 108.69 208.84 109.46 C 200.94 111.28 191.70 108.63 184.37 105.57 C 178.73 103.20 172.27 103.67 166.51 105.36 C 160.77 107.13 156.62 110.56 151.69 113.71 C 149.40 115.44 146.42 114.54 143.88 113.97 C 139.58 112.70 135.00 111.28 131.24 108.78 C 126.81 105.77 124.68 100.79 123.33 95.79 C 122.00 90.37 123.37 85.81 123.16 80.24 C 122.13 80.30 121.11 80.35 120.08 80.41 C 118.21 88.32 118.48 96.43 122.30 103.73 C 125.72 111.21 132.80 114.42 140.20 116.81 C 149.48 119.66 157.78 124.30 166.53 128.36 C 177.89 134.09 189.34 140.51 197.64 150.37 C 201.78 154.60 204.58 160.38 207.37 165.61 C 209.96 170.49 211.45 175.68 213.36 180.83 C 215.11 185.53 215.07 190.97 215.60 196.01 C 216.24 202.06 215.70 208.01 214.86 214.00 C 214.04 219.38 213.54 225.09 210.91 229.86 C 208.79 233.85 206.02 237.64 203.01 241.00 C 197.53 246.55 189.35 248.65 182.19 251.39 C 168.33 255.57 152.41 255.44 138.00 255.42 C 124.08 254.74 109.04 254.41 95.52 251.02 C 93.33 250.54 93.63 248.79 93.12 247.04 C 90.21 230.31 86.85 213.67 83.79 196.97 C 83.00 191.72 81.53 186.73 81.21 181.42 C 85.06 182.83 88.87 183.77 93.00 183.74 C 97.43 183.65 102.55 184.39 106.01 181.00 C 109.92 177.44 112.63 171.30 112.40 166.00 C 112.09 161.16 110.28 156.38 107.67 152.33 C 104.17 147.09 101.07 141.86 96.94 137.05 C 92.73 132.30 88.40 127.17 85.46 121.50 C 82.12 115.29 80.58 108.01 80.35 101.00 C 80.18 96.29 79.56 91.72 80.24 87.00 C 81.21 76.60 85.12 66.67 91.27 58.25 C 98.71 49.05 109.01 44.33 120.21 41.34 C 123.67 40.35 127.62 41.20 130.92 40.02 C 132.71 37.35 133.73 34.24 135.50 31.54 C 138.91 25.82 144.07 21.29 150.56 19.46 Z" />

<path d="M 163.93 21.02 C 164.34 24.96 162.76 28.10 161.83 31.81 C 161.07 34.74 160.28 37.66 159.30 40.53 C 155.92 39.49 152.53 38.53 149.21 37.32 C 150.31 34.17 151.28 30.93 153.19 28.15 C 155.82 24.51 159.65 22.23 163.93 21.02 Z" />

<path d="M 155.23 55.25 C 161.24 54.54 163.88 64.09 158.89 66.91 C 154.98 69.10 150.09 67.57 149.18 62.96 C 148.51 58.90 150.92 55.25 155.23 55.25 Z" />

<path d="M 154.14 58.35 C 156.04 57.92 157.18 58.99 158.80 59.73 C 157.79 62.02 158.07 64.08 155.01 64.31 C 151.81 64.96 151.07 58.72 154.14 58.35 Z" />

<path d="M 210.68 73.33 C 211.22 75.50 208.52 76.48 207.39 78.00 C 207.92 79.22 208.57 80.36 209.22 81.51 C 211.34 81.77 213.44 82.06 215.55 82.37 C 215.60 83.24 215.65 84.12 215.71 85.00 C 210.46 87.00 205.04 84.50 203.61 79.03 C 203.32 75.66 207.15 70.17 210.68 73.33 Z" />

<path d="M 175.70 257.12 C 170.46 263.61 168.87 271.88 170.33 280.01 C 170.96 283.26 172.75 286.41 174.25 289.34 C 156.21 289.27 138.13 289.58 120.10 289.13 C 125.75 279.68 125.19 268.28 120.34 258.63 C 138.41 259.06 157.81 260.20 175.70 257.12 Z" />

<path d="M 116.00 292.49 C 135.67 292.56 155.33 292.48 175.00 292.53 C 179.60 292.59 184.27 292.17 188.85 292.58 C 193.43 293.21 198.07 296.27 199.23 300.96 C 200.58 305.07 200.00 309.85 197.28 313.28 C 196.12 314.71 194.71 314.58 193.03 314.64 C 162.41 314.50 131.60 314.63 100.97 314.56 C 97.26 314.77 96.07 311.01 95.67 308.01 C 95.31 303.51 96.23 297.14 100.54 294.64 C 104.95 291.38 110.84 292.63 116.00 292.49 Z" />

<path d="M 93.73 317.80 C 129.12 317.64 164.65 317.74 200.05 317.74 C 200.02 320.38 199.97 323.03 199.88 325.67 C 165.59 325.33 131.27 325.72 96.98 325.45 C 95.13 325.49 94.16 324.86 93.57 323.08 C 93.48 321.33 93.63 319.55 93.73 317.80 Z" />

</g>
</svg>

